# xmcd
#
# Track frame offsets:
#	150
#	21877
#	44580
#	61617
#	78502
#	93412
#	115570
#	131617
#	150850
#	172875
#
# Disc length: 2837 seconds
#
# Revision: 0
# Processed by: cddbd v1.4PL0 Copyright (c) Steve Scherf et al.
# Submitted via: dBpowerAMP V4.0
#
DISCID=6b0b130a
DTITLE=Aynsley Lister - All Or Nothing
DYEAR=2002
DGENRE=Blues
TTITLE0=Say Goodbye
TTITLE1=Hero
TTITLE2=Nothin' At All
TTITLE3=What U Got 4 Me
TTITLE4=Rainy Day
TTITLE5=Balls Of Steel
TTITLE6=Without Wings
TTITLE7=Comin' Home 2 U
TTITLE8=Sometimes It Gets 2 Me
TTITLE9=Crosstown Traffic
EXTD=Released by Ruf Records Gmbh\nLudwig Wagner Str. 31a\nD-37318 Lindewerra - Germany\nwww.rufrecords.de
EXTT0=
EXTT1=
EXTT2=
EXTT3=
EXTT4=
EXTT5=
EXTT6=
EXTT7=
EXTT8=
EXTT9=
PLAYORDER=
